<svg width="13" height="15" viewBox="0 0 13 15" fill="none" xmlns="http://www.w3.org/2000/svg">
<path d="M10.5441 7.91176C10.5334 7.36013 10.6768 6.81648 10.9583 6.34203C11.2399 5.86757 11.6483 5.48108 12.1376 5.22616C11.8295 4.79775 11.4271 4.44582 10.9615 4.19748C10.4958 3.94915 9.97944 3.81106 9.45199 3.79384C8.31509 3.70432 7.07972 4.45629 6.62316 4.45629C6.16661 4.45629 5.03866 3.82965 4.17926 3.82965C2.38887 3.82965 0.5 5.25302 0.5 8.0908C0.50863 8.97534 0.662881 9.85246 0.956551 10.6869C1.35044 11.8327 2.82752 14.7063 4.36726 14.6616C5.17294 14.6616 5.74587 14.0886 6.79325 14.0886C7.84063 14.0886 8.33299 14.6616 9.23714 14.6616C10.7858 14.6616 12.1286 12.0207 12.5136 10.848C11.9307 10.6096 11.4321 10.203 11.0813 9.68004C10.7305 9.15707 10.5435 8.54144 10.5441 7.91176ZM8.75374 2.65694C9.03187 2.34331 9.24162 1.97515 9.36954 1.57595C9.49747 1.17674 9.54079 0.755264 9.49675 0.338379C8.6609 0.430038 7.88888 0.828813 7.33037 1.45738C7.04158 1.76166 6.81859 2.1222 6.67535 2.5165C6.53212 2.9108 6.4717 3.33039 6.49784 3.74908C6.93129 3.76127 7.36134 3.66828 7.75102 3.47809C8.14079 3.2879 8.47864 3.00615 8.73583 2.65694H8.75374Z" fill="white"/>
</svg>
