<svg width="14" height="16" viewBox="0 0 14 16" fill="none" xmlns="http://www.w3.org/2000/svg">
<path d="M12.6875 7.75C12.6875 9.80078 11.5938 11.6602 9.84375 12.6992C8.06641 13.7109 5.90625 13.7109 4.15625 12.6992C2.37891 11.6602 1.3125 9.80078 1.3125 7.75C1.3125 5.72656 2.37891 3.86719 4.15625 2.82812C5.90625 1.81641 8.06641 1.81641 9.84375 2.82812C11.5938 3.86719 12.6875 5.72656 12.6875 7.75ZM0 7.75C0 10.2656 1.3125 12.5625 3.5 13.8203C5.66016 15.0781 8.3125 15.0781 10.5 13.8203C12.6602 12.5625 14 10.2656 14 7.75C14 5.26172 12.6602 2.96484 10.5 1.70703C8.3125 0.449219 5.66016 0.449219 3.5 1.70703C1.3125 2.96484 0 5.26172 0 7.75ZM6.34375 4.03125V7.75C6.34375 7.96875 6.45312 8.1875 6.61719 8.29688L9.24219 10.0469C9.54297 10.2656 9.95312 10.1836 10.1719 9.88281C10.3633 9.58203 10.2812 9.17188 9.98047 8.95312L7.65625 7.42188V4.03125C7.65625 3.67578 7.35547 3.375 7 3.375C6.61719 3.375 6.34375 3.67578 6.34375 4.03125Z" fill="#353535"/>
</svg>
