<svg width="14" height="13" viewBox="0 0 14 13" fill="none" xmlns="http://www.w3.org/2000/svg">
<path d="M9.625 11.5625H4.375V8.5V7.40625H9.625V8.5V11.5625ZM9.625 6.09375H4.375V5V1.9375H9.625V5V6.09375ZM1.75 1.9375H3.0625V4.34375H1.3125V2.375C1.3125 2.15625 1.50391 1.9375 1.75 1.9375ZM1.3125 5.65625H3.0625V7.84375H1.3125V5.65625ZM3.0625 11.5625H1.75C1.50391 11.5625 1.3125 11.3711 1.3125 11.125V9.15625H3.0625V11.5625ZM10.9375 4.34375V1.9375H12.25C12.4688 1.9375 12.6875 2.15625 12.6875 2.375V4.34375H10.9375ZM10.9375 5.65625H12.6875V7.84375H10.9375V5.65625ZM10.9375 9.15625H12.6875V11.125C12.6875 11.3711 12.4688 11.5625 12.25 11.5625H10.9375V9.15625ZM12.25 0.625H1.75C0.765625 0.625 0 1.41797 0 2.375V11.125C0 12.1094 0.765625 12.875 1.75 12.875H12.25C13.207 12.875 14 12.1094 14 11.125V2.375C14 1.41797 13.207 0.625 12.25 0.625Z" fill="#383838"/>
</svg>
