<svg width="15" height="15" viewBox="0 0 15 15" fill="none" xmlns="http://www.w3.org/2000/svg">
<path d="M14.777 6.34678L14.6926 6.01867H7.71786V8.98107H11.8896C11.6568 9.88507 11.1276 10.6848 10.3865 11.2525C9.64557 11.8201 8.73557 12.1228 7.80223 12.1122C6.58427 12.1022 5.41406 11.6374 4.52108 10.8091C4.08211 10.3765 3.73279 9.86144 3.4931 9.29362C3.25342 8.72579 3.12808 8.11625 3.12426 7.49987C3.13842 6.26194 3.62854 5.07692 4.49296 4.19062C5.37334 3.35661 6.54265 2.89626 7.75536 2.90629C8.79398 2.91428 9.79398 3.30095 10.5678 3.99375L12.6302 1.87507C11.2709 0.662325 9.51142 -0.00541517 7.68973 0.00013465C6.68758 -0.00581828 5.69414 0.185669 4.76602 0.563675C3.83791 0.941672 2.99333 1.49878 2.28054 2.20319C0.924667 3.61153 0.160236 5.48602 0.144534 7.4409C0.12884 9.3958 0.863085 11.2823 2.19617 12.7122C2.93474 13.448 3.81257 14.0293 4.77834 14.422C5.74411 14.8148 6.77842 15.0111 7.82098 14.9996C8.76632 15.0066 9.70332 14.8217 10.5752 14.4559C11.4469 14.0901 12.2353 13.5511 12.8927 12.8716C14.1825 11.4533 14.8803 9.59483 14.8426 7.67799C14.8527 7.23325 14.8308 6.78842 14.777 6.34678Z" fill="white"/>
</svg>
