<svg width="19" height="15" viewBox="0 0 19 15" fill="none" xmlns="http://www.w3.org/2000/svg">
<path d="M3.1875 11.0859C2.39453 10.4297 1.92969 9.47266 1.76562 8.46094L1 3.94922C0.972656 3.67578 0.972656 3.40234 1.13672 3.18359C1.54688 2.60938 2.69531 1.48828 5.83984 0.941406C8.95703 0.421875 10.4336 1.10547 10.9805 1.54297C11.0078 1.54297 11.0352 1.57031 11.0625 1.59766C9.99609 1.65234 9.23047 1.84375 8.65625 2.11719C8.02734 2.03516 7.17969 2.0625 6.05859 2.25391C3.57031 2.66406 2.61328 3.45703 2.3125 3.8125L3.05078 8.24219C3.1875 9.00781 3.51562 9.66406 4.03516 10.0742C4.58203 10.5391 5.23828 11.0039 5.92188 11.3594C6.35938 11.5508 6.71484 11.6875 7.04297 11.7422C7.07031 11.7695 7.09766 11.7969 7.09766 11.8242C7.34375 12.207 7.61719 12.6172 7.91797 13.0273C7.89062 13.0273 7.86328 13.0273 7.86328 13.0273C6.25 13.3008 4.36328 12.0703 3.1875 11.0859ZM6.71484 6.90234L6.49609 8.26953C6.49609 8.32422 6.46875 8.37891 6.46875 8.43359C5.94922 8.59766 5.48438 8.84375 5.07422 9.17188C4.91016 9.33594 4.60938 9.22656 4.66406 9.00781C4.80078 7.96875 5.62109 7.09375 6.71484 6.90234ZM5.75781 4.98828C5.86719 4.90625 6.03125 4.93359 6.08594 5.07031C6.08594 5.09766 6.08594 5.09766 6.08594 5.125C6.19531 5.69922 5.78516 6.27344 5.18359 6.38281C4.58203 6.46484 4.03516 6.08203 3.92578 5.48047C3.92578 5.45312 3.92578 5.45312 3.92578 5.42578C3.89844 5.28906 4.0625 5.20703 4.19922 5.23438C4.44531 5.31641 4.71875 5.34375 5.01953 5.28906C5.29297 5.26172 5.53906 5.15234 5.75781 4.98828ZM11.6367 14.7227C10.0234 14.4492 8.65625 12.6719 7.86328 11.3594C7.31641 10.4844 7.17969 9.41797 7.37109 8.40625L8.10938 3.89453C8.16406 3.64844 8.27344 3.375 8.49219 3.21094C9.06641 2.80078 10.5156 2.11719 13.6602 2.63672C16.7773 3.15625 17.9258 4.27734 18.3359 4.87891C18.5 5.09766 18.5 5.37109 18.4727 5.64453L17.707 10.1289C17.543 11.168 17.0781 12.125 16.2852 12.7812C15.1094 13.7656 13.25 14.9961 11.6367 14.7227ZM10.3516 12.5078C10.9258 13.0547 11.418 13.3555 11.8281 13.4375C12.2656 13.4922 12.8398 13.3828 13.5508 13.0273C14.2344 12.6992 14.8906 12.207 15.4375 11.7695C15.957 11.3594 16.2852 10.7031 16.4219 9.91016L17.1602 5.48047C16.8594 5.15234 15.9297 4.35938 13.4414 3.92188C10.9531 3.51172 9.80469 3.94922 9.39453 4.19531L8.65625 8.625C8.51953 9.41797 8.62891 10.1289 8.98438 10.6758C9.33984 11.2773 9.83203 11.9609 10.3516 12.5078ZM11.9102 7.20312C11.6914 7.03906 11.4453 6.92969 11.1719 6.875C10.8711 6.84766 10.5977 6.84766 10.3516 6.92969C10.2148 6.98438 10.0508 6.90234 10.0781 6.73828V6.71094C10.1875 6.10938 10.7344 5.69922 11.3359 5.80859C11.9375 5.91797 12.3477 6.46484 12.2383 7.06641C12.2383 7.06641 12.2383 7.09375 12.2383 7.12109C12.2109 7.25781 12.0195 7.28516 11.9102 7.20312ZM15.6836 7.69531C15.6562 7.83203 15.4648 7.85938 15.3555 7.77734C15.1367 7.61328 14.8906 7.50391 14.6172 7.44922C14.3438 7.42188 14.0703 7.42188 13.7969 7.50391C13.6602 7.55859 13.4961 7.47656 13.5234 7.3125V7.28516C13.6328 6.68359 14.207 6.27344 14.7812 6.38281C15.3828 6.49219 15.793 7.03906 15.6836 7.64062C15.6836 7.66797 15.6836 7.66797 15.6836 7.69531ZM15.1367 9.22656C15.3555 9.14453 15.5742 9.33594 15.4922 9.55469C14.918 10.7578 13.5781 11.4961 12.2109 11.2773C10.8164 11.0312 9.80469 9.91016 9.66797 8.57031C9.64062 8.35156 9.91406 8.24219 10.0781 8.40625C10.7344 8.98047 11.5547 9.39062 12.4844 9.55469C13.4141 9.69141 14.3164 9.58203 15.1367 9.25391V9.22656Z" fill="#353535"/>
</svg>
