<svg width="14" height="14" viewBox="0 0 14 14" fill="none" xmlns="http://www.w3.org/2000/svg">
<path d="M3.9375 2.375C3.9375 2.15625 4.12891 1.9375 4.375 1.9375H11.375C11.5938 1.9375 11.8125 2.15625 11.8125 2.375V7.625H10.5C10.0078 7.625 9.625 8.03516 9.625 8.5V9.8125H4.375C4.12891 9.8125 3.9375 9.62109 3.9375 9.375V2.375ZM2.625 2.375V9.375C2.625 10.3594 3.39062 11.125 4.375 11.125H9.76172C10.2266 11.125 10.6641 10.9609 10.9922 10.6328L12.6055 9.01953C12.9336 8.69141 13.125 8.25391 13.125 7.78906V2.375C13.125 1.41797 12.332 0.625 11.375 0.625H4.375C3.39062 0.625 2.625 1.41797 2.625 2.375ZM8.75 13.0938C8.75 12.7383 8.44922 12.4375 8.09375 12.4375H3.71875C2.37891 12.4375 1.3125 11.3711 1.3125 10.0312V3.90625C1.3125 3.55078 1.01172 3.25 0.65625 3.25C0.273438 3.25 0 3.55078 0 3.90625V10.0312C0 12.1094 1.64062 13.75 3.71875 13.75H8.09375C8.44922 13.75 8.75 13.4766 8.75 13.0938Z" fill="#353535"/>
</svg>
